# xmcd CD database file
#
# Track frame offsets:
#	150
#	13815
#	32675
#	46282
#	65027
#	74037
#	94175
#	115677
#	132150
#	154605
#	164430
#	175497
#	193315
#	205075
#
# Disc length: 2764 seconds
#
# Revision: 4
# Processed by: cddbd v1.5.2PL0 Copyright (c) Steve Scherf et al.
# Submitted via: CDex 1.50
#
DISCID=cc0aca0e
DTITLE=Сплин - 25 кадр
DYEAR=2001
DGENRE=Rock
TTITLE0=Линия Жизни
TTITLE1=Звезда Рок-н-ролла
TTITLE2=Всего Хорошего
TTITLE3=Моё Сердце
TTITLE4=Рики-Тики-Тави
TTITLE5=SOS!
TTITLE6=Феллини
TTITLE7=Остаёмся Зимовать
TTITLE8=Тебе это снится
TTITLE9=Совсем Другой
TTITLE10=Пластмассовая Жизнь
TTITLE11=Пой мне ещё
TTITLE12=Ленинград-Amsterdam
TTITLE13=Fine
EXTD=YEAR: 2001
EXTT0=
EXTT1=
EXTT2=
EXTT3=
EXTT4=
EXTT5=
EXTT6=
EXTT7=
EXTT8=
EXTT9=
EXTT10=
EXTT11=
EXTT12=
EXTT13=
PLAYORDER=
